<svg viewBox="0 0 1512 1032" fill="none" xmlns="http://www.w3.org/2000/svg">
    <path d="M0 408.112C0 408.112 392 441.612 833 328.112C1274 214.612 1512 582.612 1512 582.612V907.832C1512 907.832 1424.56 676.175 880.418 808.765C336.278 941.354 0 907.832 0 907.832V408.112Z" fill="#00883A"/>
    <path d="M0 467.612C0 467.612 336 500.612 456.5 421.112C577 341.612 605.31 112.382 787 26.1121C1048.38 -97.9981 1513 260.612 1513 260.612V870.612C1513 870.612 1296.5 743.112 1058.5 743.112C820.5 743.112 767.5 799.112 603.5 903.112C439.5 1007.11 0 1031.11 0 1031.11V467.612Z" fill="#00BE36"/>
</svg>
