<svg viewBox="0 0 86 64" fill="none" xmlns="http://www.w3.org/2000/svg">
    <path d="M65.9324 0C77.0155 0 86 9.03926 86 20.1907C86 31.3382 77.0155 40.3775 65.9324 40.3775C65.9324 40.3775 66.0295 47.8773 72.0872 58.6716C72.76 60.8344 71.5606 63.1376 69.4089 63.8106C67.8822 64.2936 66.2758 63.8241 65.2384 62.7312C51.3096 47.4078 45.8573 29.3732 45.8573 20.1907C45.8573 9.03926 54.8416 0 65.9324 0Z" fill="#00BE36"/>
    <path d="M20.0753 0C31.1584 0 40.1429 9.03943 40.1429 20.1907C40.1429 31.3382 31.1584 40.3775 20.0753 40.3775C20.0753 40.3775 20.1724 47.8773 26.23 58.6716C26.9029 60.8344 25.7033 63.1376 23.5517 63.8106C22.0251 64.2936 20.4186 63.8241 19.3814 62.7312C5.45243 47.4078 0 29.3732 0 20.1907C0 9.03926 8.98448 0 20.0753 0Z" fill="#00BE36"/>
</svg>
